<?xml version="1.0" standalone="no"?>
<!DOCTYPE svg PUBLIC "-//W3C//DTD SVG 20010904//EN"
 "http://www.w3.org/TR/2001/REC-SVG-20010904/DTD/svg10.dtd">
<svg version="1.0" xmlns="http://www.w3.org/2000/svg"
 width="1024.000000pt" height="1024.000000pt" viewBox="0 0 1024.000000 1024.000000"
 preserveAspectRatio="xMidYMid meet">

<g transform="translate(0.000000,1024.000000) scale(0.100000,-0.100000)"
fill="#000000" stroke="none">
<path d="M0 5120 l0 -5120 5120 0 5120 0 0 5120 0 5120 -5120 0 -5120 0 0
-5120z m5480 2325 c171 -433 506 -1286 546 -1391 l39 -102 140 -5 c174 -6 274
-30 411 -97 254 -123 428 -333 508 -612 35 -122 50 -245 43 -363 -10 -166 -40
-281 -109 -420 -116 -233 -294 -388 -535 -468 -158 -53 -290 -67 -616 -67
l-272 0 0 -532 0 -533 -322 -1 -323 -1 0 1103 0 1104 320 0 320 0 0 -280 0
-280 289 0 c260 0 295 2 353 20 202 62 311 256 277 494 -20 143 -115 271 -236
316 -101 38 -188 41 -995 38 -688 -3 -777 -1 -773 12 3 8 54 139 114 290 l108
275 327 3 c271 2 325 5 314 16 -7 7 -110 259 -228 559 -118 301 -217 543 -221
539 -3 -4 -113 -279 -244 -612 -130 -333 -358 -911 -505 -1285 -147 -374 -270
-688 -273 -697 -6 -17 -31 -18 -337 -18 -211 0 -330 4 -330 10 0 5 57 153 126
327 69 175 177 446 239 603 222 559 837 2107 878 2208 l41 102 414 -2 414 -3
98 -250z"/>
</g>
</svg>
